<?xml version="1.0" encoding="UTF-8"?>
<svg width="497px" height="408px" viewBox="0 0 497 408" version="1.1" xmlns="http://www.w3.org/2000/svg" xmlns:xlink="http://www.w3.org/1999/xlink">
    <!-- Generator: Sketch 44.1 (41455) - http://www.bohemiancoding.com/sketch -->
    <title>stripes4</title>
    <desc>Created with Sketch.</desc>
    <defs></defs>
    <g id="Page-1" stroke="none" stroke-width="1" fill="none" fill-rule="evenodd">
        <g id="services" transform="translate(-524.000000, -458.000000)">
            <g id="stripes4" transform="translate(524.000000, 458.000000)">
                <rect id="Rectangle-7-Copy" fill="#FCA311" opacity="0.406363225" transform="translate(296.618037, 199.264840) rotate(-300.000000) translate(-296.618037, -199.264840) " x="293.981432" y="26.3926941" width="5.27320955" height="345.744292"></rect>
                <rect id="Rectangle-7-Copy-3" fill="#330867" opacity="0.372735507" transform="translate(346.646727, 87.578910) rotate(-300.000000) translate(-346.646727, -87.578910) " x="345.328424" y="-85.2932359" width="2.63660477" height="345.744292"></rect>
                <path d="M187.504521,192.729115 L196.295225,181.069694 L196.295225,197.813989 L187.504521,192.729115 Z M207.987644,192.729115 L199.195491,197.813989 L199.195491,181.069694 L207.987644,192.729115 Z M199.19694,176.273542 L197.745358,174.191781 L196.295225,176.273542 L183.244032,193.583351 L196.295225,201.132365 L197.745358,201.90411 L199.19694,201.132365 L212.246684,193.583351 L199.19694,176.273542 Z" id="Fill-2-Copy" fill="#330867" transform="translate(197.745358, 188.047945) rotate(-120.000000) translate(-197.745358, -188.047945) "></path>
                <path d="M280.716673,162.281838 L288.708223,152.288049 L288.708223,166.640301 L280.716673,162.281838 Z M299.337695,162.281838 L291.344828,166.640301 L291.344828,152.288049 L299.337695,162.281838 Z M291.346145,148.17706 L290.026525,146.392694 L288.708223,148.17706 L276.843501,163.01404 L288.708223,169.484623 L290.026525,170.146119 L291.346145,169.484623 L303.209549,163.01404 L291.346145,148.17706 Z" id="Fill-2-Copy-3" fill="#330867" transform="translate(290.026525, 158.269406) rotate(-120.000000) translate(-290.026525, -158.269406) "></path>
                <path d="M218.873252,316.226487 C218.873252,315.839399 218.66779,315.481567 218.333982,315.288158 L212.488299,311.89674 C212.15476,311.703331 211.743567,311.703331 211.409759,311.89674 C211.076221,312.090419 210.87049,312.447981 210.87049,312.835068 L210.87049,333.942316 L201.932094,328.757129 L201.932094,306.474804 C201.932094,306.087716 201.726632,305.729883 201.392824,305.536475 L195.547141,302.145056 C195.213602,301.951648 194.802409,301.951648 194.468601,302.145056 C194.135063,302.338736 193.929332,302.696297 193.929332,303.083385 L193.929332,325.356772 L138.632615,356.473581 L136.095351,355.001889 C135.76397,354.809835 135.356552,354.80821 135.023822,354.997555 L121.051074,362.959263 L109.414443,356.209202 C109.083062,356.016877 108.674295,356.015522 108.341296,356.206222 L94.071141,364.375424 C93.7864066,364.538494 93.5952355,364.821022 93.5426567,365.139577 L91.0525788,380.206469 C91.0194137,380.3113 91,380.421277 91,380.534234 L91,393.250971 C91,393.638059 91.2054618,393.995891 91.5392697,394.1893 L114.361434,407.425855 C114.529686,407.523372 114.715464,407.570776 114.900164,407.570776 C115.085673,407.570776 115.433771,407.428564 115.433771,407.428564 L125.437764,401.719766 C125.622733,403.097733 126.259341,404.236242 127.33869,404.862246 C127.897373,405.186219 128.514837,405.340079 129.158455,405.340079 C131.205793,405.340079 133.514406,403.780893 135.010071,401.178548 C136.137414,399.216834 136.518948,397.152186 136.202127,395.490337 L150.353373,387.282941 C150.562609,388.596709 151.194364,389.677521 152.236503,390.281854 C152.795186,390.605827 153.41265,390.759687 154.056268,390.759687 C156.103606,390.759687 158.41195,389.200772 159.907884,386.598427 C160.912274,384.850437 161.324006,383.020913 161.178403,381.466874 L162.417106,380.7485 C162.750914,380.555092 162.956376,380.197259 162.956376,379.810172 L162.956376,376.194735 L166.249696,374.287468 L169.907562,376.409272 C170.238943,376.601597 170.646631,376.60241 170.979091,376.412793 L170.97963,376.413877 L173.354844,375.057851 C173.671934,375.984803 174.234662,376.71347 175.017412,377.167194 C175.570164,377.487917 176.18601,377.647736 176.837717,377.647736 C177.595661,377.647736 178.401869,377.431573 179.214009,377.000874 C180.561914,376.286022 181.795763,375.036993 182.688254,373.484038 C183.314616,372.394287 183.709631,371.272573 183.884894,370.205305 C184.203602,370.719707 184.619379,371.142009 185.134921,371.44106 C185.687673,371.761782 186.303519,371.921601 186.955226,371.921601 C187.71317,371.921601 188.519378,371.705439 189.331518,371.27474 C190.679423,370.559887 191.913272,369.310859 192.805763,367.757904 C193.405431,366.714744 193.792357,365.64233 193.978136,364.616507 C194.260713,364.979757 194.598296,365.287477 194.997355,365.518809 C195.550107,365.839531 196.165953,365.999079 196.817391,365.999079 C197.575334,365.999079 198.381812,365.782917 199.193952,365.352217 C200.541857,364.637365 201.775976,363.388337 202.668197,361.83511 C203.294559,360.74536 203.689574,359.623645 203.864837,358.556649 C204.183545,359.07105 204.599322,359.493352 205.114864,359.792133 C205.667615,360.112855 206.283461,360.272674 206.935169,360.272674 C207.693113,360.272674 208.49959,360.056512 209.311461,359.625812 C210.659366,358.91096 211.893484,357.661932 212.785976,356.108976 C213.9055,354.160806 214.290808,352.110244 213.985581,350.454354 L215.16092,349.77282 C215.494727,349.579411 215.700189,349.221579 215.700189,348.834491 L215.700189,341.70276 L218.261451,340.219421 C218.277898,340.212107 218.294077,340.204522 218.309985,340.196667 C218.638131,340.032513 218.83092,339.708541 218.872983,339.347187 C218.878106,339.304117 218.873252,316.226487 218.873252,316.226487 Z M213.027299,314.711996 L216.715904,316.851949 L216.715904,337.333193 L213.027299,335.193511 L213.027299,314.711996 Z M161.673992,370.490271 L159.060691,368.34165 C159.015662,368.30454 158.968746,368.269867 158.917245,368.24007 L158.31542,367.890906 L211.960084,337.076941 L215.660553,339.223665 L161.673992,370.490271 Z M209.797882,335.822495 L156.153219,366.63646 L146.875892,361.255156 L200.847892,330.630807 L209.797882,335.822495 Z M199.775015,307.100266 L199.775015,327.505934 L196.08641,325.366252 L196.08641,304.960313 L199.775015,307.100266 Z M194.999512,327.238305 L198.67895,329.372569 L144.70668,359.996918 L140.805872,357.734257 L194.999512,327.238305 Z M135.551228,357.188704 L156.206606,369.169731 L132.779921,382.518702 L132.779921,370.385982 L132.775607,370.385982 C132.775607,369.998895 132.570415,369.641062 132.236607,369.447654 L123.21786,364.216146 L135.551228,357.188704 Z M108.871668,358.396558 L129.529473,370.379481 L117.430957,377.303989 L96.7728823,365.322962 L108.871668,358.396558 Z M108.098894,401.291505 L98.880618,395.945144 L98.880618,391.894945 L108.098894,397.241306 L108.098894,401.291505 Z M109.716704,395.677244 L98.3413482,389.079688 C98.0075403,388.88628 97.5963471,388.88628 97.2628088,389.079688 C96.9290009,389.273097 96.7235391,389.630929 96.7235391,390.018017 L96.7235391,390.062712 L93.1570789,387.908403 L93.1570789,382.411162 L113.822434,394.397065 L113.822434,400.12049 L110.255973,397.965368 L110.255973,396.615843 C110.255973,396.228485 110.050512,395.870923 109.716704,395.677244 Z M115.829056,381.736671 L94.9833157,369.64648 L95.4141922,367.037363 L116.245103,379.118886 L115.829056,381.736671 Z M115.464779,384.027775 L114.181048,392.102439 L93.2767967,379.978117 L94.6060966,371.929999 L115.464779,384.027775 Z M118.41081,379.237531 L121.326372,377.568639 L121.326372,388.799869 L116.439779,391.634088 L118.41081,379.237531 Z M93.1570789,390.437069 L96.7235391,392.591649 L96.7235391,394.693678 L93.1570789,392.625238 L93.1570789,390.437069 Z M110.255973,402.542429 L110.255973,400.494034 L113.822434,402.649156 L113.822434,404.610869 L110.255973,402.542429 Z M126.678354,396.346318 L126.678354,396.346318 C126.144746,397.274895 125.783166,398.225955 125.577704,399.147489 L115.979512,404.624684 L115.979512,394.403566 L122.944181,390.363931 C123.277989,390.170523 123.48345,389.81269 123.48345,389.425602 L123.48345,376.333967 L130.622842,372.247741 L130.622842,392.605193 C130.466454,392.672371 130.309796,392.74578 130.152599,392.82894 C128.804964,393.544063 127.570845,394.793091 126.678354,396.346318 Z M133.141771,400.095298 C131.711358,402.583874 129.504397,403.615927 128.417229,402.985589 C127.330601,402.355251 127.116241,399.918414 128.546384,397.429838 L128.546384,397.429838 C129.22856,396.243112 130.18118,395.264694 131.159955,394.745687 C131.640983,394.490518 132.554776,394.124559 133.271196,394.539548 C134.357555,395.169886 134.571914,397.606452 133.141771,400.095298 Z M158.039314,385.514906 C156.608901,388.003482 154.40221,389.036077 153.314772,388.405197 C152.228144,387.774859 152.013784,385.338022 153.443928,382.849446 L153.443928,382.849446 C154.87434,380.360871 157.081032,379.328276 158.168469,379.959156 C159.255368,380.589764 159.469458,383.026331 158.039314,385.514906 Z M159.247009,378.082498 C156.911162,376.728369 153.541535,378.345523 151.575897,381.765926 L151.575897,381.765926 C151.011012,382.749221 150.638377,383.757707 150.441274,384.729354 L135.315837,393.501806 C135.045932,393.169165 134.727494,392.881761 134.349466,392.662619 C133.868167,392.383342 133.338874,392.228399 132.779921,392.192372 L132.779921,385.009986 L158.266347,370.487291 L160.799027,372.571172 L160.799027,379.184439 L160.514832,379.349405 C160.197472,378.826606 159.77792,378.390489 159.247009,378.082498 Z M169.368293,373.594015 L168.408123,373.037086 L169.368293,372.480969 L169.368293,373.594015 Z M180.819955,372.399976 C180.138048,373.586701 179.185428,374.564849 178.206654,375.084127 C177.725355,375.339025 176.811023,375.705796 176.095413,375.290266 C175.379532,374.875278 175.237974,373.896859 175.217481,373.350494 C175.175418,372.239344 175.542661,370.921512 176.224568,369.734786 C177.380492,367.723502 179.04387,366.663819 180.213276,366.663819 C180.491,366.663819 180.740682,366.723683 180.94911,366.844496 C182.036008,367.474834 182.250367,369.9114 180.819955,372.399976 Z M190.937463,366.673841 C190.255557,367.860567 189.302937,368.838715 188.324162,369.357992 C187.843134,369.613161 186.929071,369.97912 186.212921,369.564132 C185.497041,369.148873 185.355482,368.170454 185.33499,367.624089 C185.292927,366.512939 185.66017,365.195107 186.342076,364.008381 C187.77222,361.519535 189.979451,360.487753 191.066618,361.118091 C192.153516,361.748429 192.367876,364.185266 190.937463,366.673841 Z M200.800167,360.751048 C200.11826,361.937774 199.165641,362.916193 198.186866,363.435199 C197.705837,363.690097 196.791236,364.056056 196.075625,363.641339 C195.359745,363.22608 195.218186,362.247661 195.197694,361.701566 C195.155631,360.590416 195.522874,359.272585 196.20478,358.085859 C197.360705,356.074574 199.024082,355.014891 200.193489,355.014891 C200.471213,355.014891 200.720894,355.074756 200.929322,355.195568 C202.01622,355.825635 202.23031,358.262473 200.800167,360.751048 Z M210.917945,355.024643 C210.235769,356.211369 209.283149,357.189517 208.304375,357.708794 C207.823346,357.963963 206.909014,358.330193 206.193134,357.914934 C205.477253,357.499945 205.335965,356.521526 205.315203,355.975161 C205.273409,354.864011 205.640382,353.546179 206.322289,352.359454 L206.322289,352.359454 C207.752702,349.870607 209.960742,348.838825 211.046831,349.469163 C212.133729,350.099501 212.347819,352.536068 210.917945,355.024643 Z M213.54338,348.207945 L213.113582,348.457155 C212.839633,348.113137 212.513644,347.817065 212.12564,347.592235 C209.790063,346.238105 206.420166,347.85553 204.454528,351.275933 L204.454528,351.275933 C203.844075,352.338325 203.44178,353.467624 203.263281,354.565501 C202.947539,354.051913 202.532301,353.622568 202.008131,353.31864 C199.672554,351.964511 196.302658,353.581936 194.33702,357.002339 C193.75299,358.01841 193.358245,359.096242 193.168692,360.148882 C192.888271,359.785632 192.54961,359.476016 192.145697,359.241433 C189.81012,357.887304 186.440223,359.504458 184.474585,362.924861 C183.863862,363.987253 183.461567,365.116552 183.283339,366.214429 C182.967596,365.70084 182.552358,365.271495 182.028458,364.967568 C179.692881,363.613167 176.322984,365.230863 174.357346,368.651266 C173.600212,369.968556 173.15855,371.389322 173.075772,372.72449 L171.525641,373.609455 L171.525641,370.967833 C171.646437,370.668781 171.633495,370.319346 171.460659,370.018398 C171.162982,369.500204 170.503455,369.322507 169.987913,369.621017 L162.956376,373.693428 L162.956376,372.249096 L213.54365,342.951246 L213.54365,348.207945 L213.54338,348.207945 Z" id="Shape" fill="#330867" fill-rule="nonzero"></path>
                <path d="M14.3027678,350.864056 C15.5726434,350.084337 16.2756936,348.501404 16.2824025,346.407012 C16.2886206,344.44105 15.6763869,342.224319 14.5585265,340.165079 C13.4405843,338.10584 11.9415404,336.433546 10.3375257,335.456395 C8.62878575,334.415377 6.98828087,334.271371 5.71832342,335.051177 C4.44844778,335.830897 3.74531582,337.413829 3.73868867,339.508309 C3.73247061,341.474183 4.3446225,343.691002 5.46256469,345.750241 C6.58042506,347.80948 8.07946902,349.481775 9.6834837,350.458926 C10.6665921,351.057833 11.6271191,351.359854 12.5074659,351.359854 C13.1572534,351.35968 13.7635145,351.195139 14.3027678,350.864056 Z M6.52544429,345.097473 C4.53149164,341.424412 4.44288425,337.341348 6.33202982,336.181384 C6.68302309,335.965853 7.08179725,335.863701 7.51166173,335.863701 C9.39548922,335.863701 11.8722417,337.826965 13.4958106,340.817587 C15.4897632,344.490648 15.5783706,348.573712 13.689225,349.733676 C13.3382318,349.949206 12.9393758,350.051359 12.5095113,350.051272 C10.625602,350.051185 8.14901314,348.088095 6.52544429,345.097473 Z M23.5972167,344.338898 C23.2683958,341.690932 22.3423954,338.905573 20.9192772,336.283884 C19.0974667,332.928245 16.6606407,330.20684 14.0578089,328.621037 C11.3499245,326.971365 8.76885579,326.732168 6.79003922,327.947472 C6.62182426,328.050582 4.43552076,329.356119 3.0414475,330.225113 C1.39701542,331.256647 0.373735054,333.165702 0.0817315656,335.751106 C-0.191535918,338.16962 0.225565169,341.07349 1.25612721,343.9302 C1.2575181,343.934637 1.2589908,343.939075 1.26054531,343.943426 L9.43443393,367.663309 C9.51502329,367.897112 9.71375585,368.061827 9.94668774,368.087757 C9.96812369,368.090193 9.98947783,368.091324 10.0107501,368.091324 C10.1187481,368.091324 10.2231461,368.060522 10.3146989,368.004921 L14.0206641,365.754515 C14.1084533,365.701176 14.1824974,365.625649 14.2362509,365.534547 L22.2812783,351.890543 C22.4595567,351.63316 22.6243354,351.352458 22.7713599,351.055919 C23.6397614,349.304791 23.925465,346.982078 23.5972167,344.338898 Z M2.4208685,343.517847 C2.41751402,343.506797 2.41383227,343.495746 2.40982326,343.484782 C1.44373271,340.815672 1.0497039,338.124374 1.30014455,335.906772 C1.61178403,333.147952 2.77578897,331.894275 3.69737128,331.328432 C5.28240451,330.355284 7.42927241,330.595351 9.74214621,332.004433 C12.1599907,333.477468 14.4359652,336.028415 16.1508414,339.187319 C18.8170812,344.098569 19.5523671,349.527978 17.9805881,352.697672 L17.9805881,352.697672 C17.8600723,352.940611 10.155811,365.963954 10.155811,365.963954 L2.4208685,343.517847 Z M21.685817,350.447092 C21.5639103,350.692903 13.2781784,364.702446 13.2781784,364.702446 L11.8294516,365.582404 C11.8294516,365.582404 18.9205792,353.599992 19.0661309,353.306499 L19.0661309,353.306499 C19.9345325,351.555371 20.2200724,349.232658 19.8918242,346.589564 C19.5629214,343.941598 18.6368392,341.156326 17.213721,338.534725 C15.3920742,335.179173 12.9552482,332.457855 10.3522527,330.871964 C9.08892238,330.102338 7.85324609,329.639954 6.69325016,329.488813 C7.00055336,329.314701 7.24575774,329.174697 7.40341836,329.078114 C8.98836976,328.104704 11.1349922,328.344772 13.4477842,329.753766 C15.8654651,331.226715 18.1414396,333.777662 19.8564794,336.936653 C22.5226374,341.848076 23.2577596,347.277486 21.685817,350.447092 Z" id="Combined-Shape" fill="#FCA311" fill-rule="nonzero"></path>
            </g>
        </g>
    </g>
</svg>