<?xml version="1.0" encoding="UTF-8"?>
<svg width="265px" height="359px" viewBox="0 0 265 359" version="1.1" xmlns="http://www.w3.org/2000/svg" xmlns:xlink="http://www.w3.org/1999/xlink">
    <!-- Generator: Sketch 44.1 (41455) - http://www.bohemiancoding.com/sketch -->
    <title>stripes3</title>
    <desc>Created with Sketch.</desc>
    <defs>
        <linearGradient x1="50%" y1="2.77555756e-15%" x2="50%" y2="89.4419859%" id="linearGradient-1">
            <stop stop-color="#14213D" stop-opacity="0" offset="0%"></stop>
            <stop stop-color="#14213D" offset="100%"></stop>
        </linearGradient>
        <linearGradient x1="50%" y1="2.77555756e-15%" x2="50%" y2="88.6416142%" id="linearGradient-2">
            <stop stop-color="#FCA311" stop-opacity="0" offset="0%"></stop>
            <stop stop-color="#FCA311" offset="100%"></stop>
        </linearGradient>
    </defs>
    <g id="Page-1" stroke="none" stroke-width="1" fill="none" fill-rule="evenodd">
        <g id="about-us" transform="translate(-1175.000000, -957.000000)">
            <g id="stripes3" transform="translate(1175.000000, 845.000000)">
                <polygon id="Rectangle-7-Copy-4" fill="url(#linearGradient-1)" opacity="0.800000012" transform="translate(279.541306, 383.709292) rotate(-300.000000) translate(-279.541306, -383.709292) " points="268.041306 230.899824 290.647338 214.209292 291.041306 538.221471 268.041306 553.209292"></polygon>
                <polygon id="Rectangle-7-Copy-7" fill="url(#linearGradient-2)" transform="translate(364.541306, 94.709292) rotate(-300.000000) translate(-364.541306, -94.709292) " points="353.041306 -58.1001763 375.647338 -74.7907079 376.041306 249.221471 353.041306 264.209292"></polygon>
                <path d="M133.825066,127.323602 L140.493267,118.488262 L140.493267,131.176845 L133.825066,127.323602 Z M149.362566,127.323602 L142.693267,131.176845 L142.693267,118.488262 L149.362566,127.323602 Z M142.694366,114.853807 L141.593267,113.276279 L140.493267,114.853807 L130.593267,127.97093 L140.493267,133.691463 L141.593267,134.276279 L142.694366,133.691463 L152.593267,127.97093 L142.694366,114.853807 Z" id="Fill-2-Copy-5" fill="#FCA311" transform="translate(141.593267, 123.776279) rotate(-120.000000) translate(-141.593267, -123.776279) "></path>
                <path d="M218.825066,254.323602 L225.493267,245.488262 L225.493267,258.176845 L218.825066,254.323602 Z M234.362566,254.323602 L227.693267,258.176845 L227.693267,245.488262 L234.362566,254.323602 Z M227.694366,241.853807 L226.593267,240.276279 L225.493267,241.853807 L215.593267,254.97093 L225.493267,260.691463 L226.593267,261.276279 L227.694366,260.691463 L237.593267,254.97093 L227.694366,241.853807 Z" id="Fill-2-Copy" fill="#330867" transform="translate(226.593267, 250.776279) rotate(-120.000000) translate(-226.593267, -250.776279) "></path>
                <path d="M81.8250664,387.323602 L88.4932667,378.488262 L88.4932667,391.176845 L81.8250664,387.323602 Z M97.3625664,387.323602 L90.6932667,391.176845 L90.6932667,378.488262 L97.3625664,387.323602 Z M90.6943661,374.853807 L89.5932667,373.276279 L88.4932667,374.853807 L78.5932667,387.97093 L88.4932667,393.691463 L89.5932667,394.276279 L90.6943661,393.691463 L100.593267,387.97093 L90.6943661,374.853807 Z" id="Fill-2-Copy-4" fill="#FCA311" transform="translate(89.593267, 383.776279) rotate(-120.000000) translate(-89.593267, -383.776279) "></path>
                <polygon id="Rectangle-7-Copy-2" fill="url(#linearGradient-2)" transform="translate(256.541306, 383.709292) rotate(-300.000000) translate(-256.541306, -383.709292) " points="245.041306 230.899824 267.647338 214.209292 268.041306 538.221471 245.041306 553.209292"></polygon>
                <path d="M142,221.009405 C142,220.577014 141.771903,220.177022 141.40132,219.960523 L116.06279,205.162336 C115.692506,204.945838 115.236312,204.94614 114.866028,205.16173 L19.2511526,260.921393 C18.8805697,261.137891 18.6521733,261.537581 18.6518739,261.970577 L18.6518739,261.97088 L18.6518739,261.97088 L18.6518739,269.929538 L3.40948233,278.715735 C3.09337932,278.898018 2.88114727,279.213833 2.82277598,279.570222 L0.0583712954,296.411972 C0.0215524783,296.529153 0,296.652088 0,296.778354 L0,310.993358 C0,311.426052 0.228396402,311.826044 0.598679953,312.04224 L25.9354142,326.837702 C26.1207057,326.9458 26.3275496,327 26.5340942,327 C26.7406388,327 26.9474827,326.9458 27.1327741,326.837702 C27.1351689,326.836188 38.2317018,320.459935 38.2317018,320.459935 C38.437049,321.999949 39.1437907,323.272596 40.3420486,323.972355 C40.9622811,324.334497 41.6477696,324.506788 42.3622941,324.506788 C44.6351826,324.506788 47.1981314,322.763901 48.8585703,319.855254 C49.8493856,318.119028 50.3597603,316.220808 50.2957015,314.510623 C50.2825306,314.156656 50.2376296,313.822976 50.1774622,313.500499 L70.5289885,301.616106 C70.7672632,303.067402 71.4680181,304.259808 72.6147895,304.92959 C73.2350219,305.291732 73.9205105,305.464022 74.635035,305.464022 C76.9079234,305.46372 79.4708723,303.721136 81.1313112,300.812489 C81.8093162,299.624928 82.2559315,298.362273 82.4537952,297.135046 C82.8043223,297.709145 83.2653059,298.188772 83.8469234,298.52881 C84.4671559,298.890953 85.1526444,299.063243 85.8671689,299.063243 C88.1400574,299.063243 90.7030063,297.320356 92.3634451,294.411709 C93.3545598,292.675787 93.8649344,290.777263 93.8008757,289.067078 C93.7880041,288.726737 93.7454978,288.405775 93.6895212,288.094501 L95.000331,287.329339 C95.3709139,287.112841 95.5990109,286.713152 95.5990109,286.280155 L95.5990109,278.354501 L102.982531,274.049062 C102.982531,274.049062 109.861363,278.043834 109.884413,278.057157 C110.068806,278.164043 110.274453,278.217335 110.4798,278.217335 C110.689038,278.217335 110.898277,278.161924 111.085065,278.051101 L113.377111,276.69246 C113.621074,278.183422 114.337693,279.340401 115.454531,279.992924 C116.068477,280.351736 116.75187,280.530082 117.475375,280.530082 C118.31682,280.530082 119.211846,280.288451 120.113458,279.807008 C121.609859,279.007629 122.979639,277.611443 123.970454,275.87552 C124.665821,274.657377 125.104354,273.403806 125.298925,272.210795 C125.652745,272.785499 126.114327,273.257859 126.686365,273.591842 C127.300312,273.950653 127.983705,274.129 128.70721,274.129 C129.548654,274.129 130.443681,273.887369 131.345293,273.405926 C132.841693,272.606547 134.211772,271.21036 135.202588,269.474438 C136.445447,267.296738 136.872905,265.004581 136.534052,263.153596 L137.839174,262.391765 C138.209757,262.175266 138.437854,261.775577 138.437854,261.342581 L138.437854,253.373021 L141.400123,251.645577 C141.771005,251.429079 141.999401,251.029087 141.999401,250.59609 L142,221.009405 L142,221.009405 Z M115.46381,207.609523 L138.407022,221.008496 L45.1859681,275.368339 L22.245151,261.971485 L115.46381,207.609523 Z M21.0465937,264.068642 L43.9883089,277.466101 L43.9883089,283.339412 L21.0465937,269.939834 L21.0465937,264.068642 Z M19.840553,272.032751 L42.7741859,285.427485 L29.3428012,293.167828 L6.4088689,279.775214 L19.840553,272.032751 Z M18.9826446,319.981216 L8.74880949,314.004653 L8.74880949,309.477265 L18.9826446,315.453526 L18.9826446,319.981216 Z M20.7786845,313.705491 L8.15012954,306.330924 C7.77954665,306.114426 7.32305318,306.114426 6.95276963,306.330924 C6.58218674,306.547119 6.35408968,306.947111 6.35408968,307.379805 L6.35408968,307.429766 L2.39471981,305.021336 L2.39471981,298.876116 L25.3367343,312.274483 L25.3364349,318.671932 L21.3773644,316.262896 L21.3773644,314.754373 C21.3773644,314.321982 21.148968,313.921687 20.7786845,313.705491 Z M27.5644224,298.12246 L4.42214947,284.607819 L4.90049475,281.690997 L28.026304,295.195948 L27.5644224,298.12246 Z M27.1600141,300.683195 L25.7348565,309.709811 L2.52762676,296.156716 L4.00337284,287.160077 L27.1600141,300.683195 Z M30.4306027,295.328875 L33.6673658,293.463659 L33.6673658,306.01844 L28.2424274,309.186885 L30.4306027,295.328875 Z M2.39471981,307.847926 L6.35408968,310.256356 L6.35408968,312.606346 L2.39471981,310.294205 L2.39471981,307.847926 Z M21.3773644,321.379826 L21.3773644,319.090091 L25.3364349,321.498824 L25.3364349,323.691664 L21.3773644,321.379826 Z M39.608965,314.453395 C39.6086657,314.453395 39.6086657,314.453395 39.608965,314.453395 C39.0165712,315.491375 38.6151563,316.554185 38.3873586,317.584596 L27.7317534,323.707107 L27.7317534,312.282053 L35.463705,307.766474 C35.8342879,307.550279 36.062385,307.150287 36.062385,306.717593 L36.062385,292.08352 L43.9883089,287.515861 L43.9883089,310.271798 C43.8146917,310.346891 43.6407752,310.428949 43.46626,310.521907 C41.9698594,311.320982 40.5997803,312.717472 39.608965,314.453395 Z M46.7844436,318.644075 C45.196445,321.425548 42.7454493,322.579499 41.5394085,321.874895 C40.3330684,321.170292 40.0950931,318.44635 41.6827924,315.664574 L41.6827924,315.664574 C42.4401225,314.33803 43.4976907,313.244335 44.5842948,312.66418 C45.1186166,312.378947 46.1333791,311.970477 46.9281268,312.433753 C47.7228744,312.897938 47.8797286,313.991633 47.9027777,314.602067 C47.9488761,315.844434 47.5414744,317.317531 46.7844436,318.644075 Z M48.1251874,310.336294 C47.5908655,310.024112 47.0029618,309.850611 46.3827293,309.810339 L46.3827293,307.053998 L59.1082704,299.633406 L59.1082704,305.487943 L49.1995185,311.274352 C48.8968858,310.899795 48.5421679,310.579438 48.1251874,310.336294 Z M79.0568851,299.601007 C77.4688866,302.38248 75.0181902,303.535825 73.8118501,302.831827 C72.60551,302.127224 72.3675347,299.403282 73.9552339,296.621506 L73.9552339,296.621506 C74.7122647,295.294962 75.7698329,294.201267 76.856437,293.621112 C77.2162436,293.428837 77.7936704,293.180849 78.375288,293.180849 C78.6572663,293.180849 78.9404419,293.239288 79.1999696,293.390685 C79.9947173,293.85487 80.1518708,294.948565 80.1746206,295.558999 C80.221617,296.801366 79.8142153,298.274766 79.0568851,299.601007 Z M90.2890191,293.200227 C88.7010205,295.9817 86.2503241,297.135046 85.043984,296.431048 C83.8373446,295.726444 83.5996686,293.002502 85.1873679,290.220727 L85.1873679,290.220727 C85.9443987,288.894183 87.0019668,287.800488 88.0885709,287.220333 C88.4483776,287.028058 89.0258044,286.780069 89.6074219,286.780069 C89.8894002,286.780069 90.1725758,286.838509 90.4321036,286.989906 C91.2268512,287.45409 91.3840047,288.547785 91.4067545,289.15822 C91.4537509,290.400587 91.0463492,291.873683 90.2890191,293.200227 Z M93.2039918,285.580396 L92.7274425,285.858665 C92.4203197,285.471693 92.0575197,285.141949 91.6300622,284.892144 C90.30219,284.116081 88.647738,284.182393 86.9708354,285.077757 C85.4744349,285.877135 84.1046552,287.273322 83.1135405,289.009245 L83.1135405,289.009245 C82.5112685,290.064182 82.1068602,291.144856 81.8811578,292.191012 L81.5815185,292.366028 C81.2585307,291.930306 80.8648986,291.565741 80.3979282,291.292923 C79.0700561,290.517163 77.415604,290.583172 75.7387015,291.478536 C74.242301,292.277914 72.8725212,293.674101 71.8817059,295.410024 C71.2453091,296.524914 70.8283285,297.669176 70.6119057,298.770138 L61.5029902,304.089334 L61.5029902,298.236311 L93.2036924,279.750385 L93.2036924,285.580396 L93.2039918,285.580396 Z M105.378448,272.651361 L109.281841,270.375252 L109.281841,274.931103 L105.378448,272.651361 Z M121.896627,274.664341 C121.139596,275.990885 120.082028,277.08458 118.995423,277.664734 C118.461102,277.949967 117.446638,278.35874 116.651591,277.895161 C115.856844,277.430977 115.69969,276.337282 115.67694,275.726848 C115.630243,274.484481 116.037945,273.011384 116.794975,271.68484 C118.382974,268.903367 120.833371,267.749719 122.04001,268.454019 C123.24665,269.158623 123.484326,271.882565 121.896627,274.664341 Z M133.12906,268.263259 C132.37173,269.589803 131.314162,270.683498 130.227557,271.263652 C129.693236,271.548582 128.678772,271.957658 127.883725,271.494079 C127.088978,271.029895 126.932124,269.9362 126.909074,269.325766 C126.862677,268.083399 127.270078,266.610302 128.027109,265.283758 L128.027109,265.283758 C129.615108,262.502285 132.065505,261.348031 133.272144,262.052937 C134.478484,262.757844 134.71646,265.481786 133.12906,268.263259 Z M136.043733,260.643427 L135.566286,260.921999 C135.262156,260.537449 134.900254,260.206797 134.469804,259.955175 C131.876322,258.440595 128.13577,260.249794 125.953581,264.072579 L125.953581,264.072579 C125.367174,265.100264 124.953786,266.184572 124.723593,267.253135 L124.422158,267.429059 C124.102463,266.996365 123.708831,266.631195 123.237969,266.356257 C120.644487,264.841677 116.903935,266.650876 114.721747,270.473661 C114.100616,271.561602 113.668669,272.713131 113.448354,273.842556 L111.67716,274.892345 L111.67716,268.978763 L136.044032,254.769511 L136.044032,260.643427 L136.043733,260.643427 Z M46.3827293,304.257688 L46.3827293,277.466404 L139.60528,223.105653 L139.60528,249.896332 L46.3827293,304.257688 Z" id="Shape" fill="#330867" fill-rule="nonzero"></path>
            </g>
        </g>
    </g>
</svg>