<?xml version="1.0" encoding="UTF-8"?>
<svg width="449px" height="297px" viewBox="0 0 449 297" version="1.1" xmlns="http://www.w3.org/2000/svg" xmlns:xlink="http://www.w3.org/1999/xlink">
    <!-- Generator: Sketch 44.1 (41455) - http://www.bohemiancoding.com/sketch -->
    <title>stripes5</title>
    <desc>Created with Sketch.</desc>
    <defs>
        <linearGradient x1="50%" y1="89.4419859%" x2="50%" y2="0%" id="linearGradient-1">
            <stop stop-color="#FCA311" offset="0%"></stop>
            <stop stop-color="#14213D" stop-opacity="0" offset="100%"></stop>
        </linearGradient>
    </defs>
    <g id="Page-1" stroke="none" stroke-width="1" fill="none" fill-rule="evenodd">
        <g id="careers" transform="translate(-640.000000, -656.000000)">
            <g id="stripes5" transform="translate(640.000000, 646.000000)">
                <polygon id="Rectangle-7-Copy-5" fill="url(#linearGradient-1)" opacity="0.599999964" transform="translate(281.112469, 105.084229) rotate(-300.000000) translate(-281.112469, -105.084229) " points="268.459658 -63.0609563 293.33182 -81.4265233 293.765281 275.103007 268.459658 291.594982"></polygon>
                <rect id="Rectangle-7-Copy-3" fill="#14213D" opacity="0.372735507" transform="translate(289.308551, 208.370501) rotate(-300.000000) translate(-289.308551, -208.370501) " x="288.208307" y="64.2235477" width="2.200489" height="288.293907"></rect>
                <rect id="Rectangle-7-Copy-6" fill="#F3F3F3" opacity="0.372735507" transform="translate(170.482146, 107.137526) rotate(-300.000000) translate(-170.482146, -107.137526) " x="169.381901" y="-48.0130115" width="2.200489" height="310.301075"></rect>
                <rect id="Rectangle-7-Copy-6" fill="#FCA311" transform="translate(200.188747, 98.334659) rotate(-300.000000) translate(-200.188747, -98.334659) " x="199.088503" y="-56.8158789" width="2.200489" height="310.301075"></rect>
                <path d="M156.489755,260.837018 L163.826406,251.114978 L163.826406,265.076967 L156.489755,260.837018 Z M173.584804,260.837018 L166.246944,265.076967 L166.246944,251.114978 L173.584804,260.837018 Z M166.248153,247.115775 L165.036675,245.379928 L163.826406,247.115775 L152.933985,261.549311 L163.826406,267.843947 L165.036675,268.487455 L166.248153,267.843947 L177.139364,261.549311 L166.248153,247.115775 Z" id="Fill-2-Copy" fill="#FCA311" transform="translate(165.036675, 256.933692) rotate(-120.000000) translate(-165.036675, -256.933692) "></path>
                <path d="M234.283863,170.600189 L240.953545,162.267011 L240.953545,174.23443 L234.283863,170.600189 Z M249.824816,170.600189 L243.154034,174.23443 L243.154034,162.267011 L249.824816,170.600189 Z M243.155134,158.839123 L242.05379,157.351254 L240.953545,158.839123 L231.051345,171.210725 L240.953545,176.606128 L242.05379,177.157706 L243.155134,176.606128 L253.056235,171.210725 L243.155134,158.839123 Z" id="Fill-2-Copy-3" fill="#330867" transform="translate(242.053790, 167.254480) rotate(-120.000000) translate(-242.053790, -167.254480) "></path>
                <path d="M168.697628,76.6118295 C165.363908,70.6694706 160.908263,65.8525189 156.151524,63.0481983 C151.246947,60.156888 146.584422,59.7298907 143.022604,61.8462449 C143.008996,61.8543149 135.34971,66.9991692 135.34971,66.9991692 C131.808535,69.1226439 129.848134,73.4820985 129.828991,79.2812151 C129.810425,84.9228483 131.636135,91.3024106 134.969969,97.2447695 C138.303689,103.187128 142.759334,108.00408 147.516073,110.808401 C150.366842,112.488976 153.135505,113.337036 155.654043,113.336918 C157.468567,113.336918 159.153359,112.896629 160.644878,112.010473 C160.924523,111.844326 168.306701,106.865025 168.306701,106.865025 C171.855257,104.744043 173.819463,100.380909 173.838491,94.5755025 C173.857057,88.9337507 172.031347,82.5541884 168.697628,76.6118295 Z M167.058502,77.2544616 L160.620892,80.9869494 C157.697588,76.0039695 153.984704,71.8672703 149.990099,69.1258482 L156.424711,65.306608 C160.429234,67.9833516 164.163336,72.1715563 167.058502,77.2544616 Z M162.872585,107.119704 L149.481779,89.8036478 L159.98699,83.4187451 C162.897378,88.8640877 164.484726,94.6150217 164.468121,99.702318 C164.458434,102.656883 163.906639,105.17282 162.872585,107.119704 Z M159.122453,81.8767841 L149.050375,87.9984629 L149.050375,70.6201013 C152.819419,73.2103298 156.336263,77.1354292 159.122453,81.8767841 Z M143.907437,63.3761009 C146.77804,61.682353 150.596555,62.0028976 154.715472,64.266173 L148.311881,68.0670184 C145.584848,66.4943202 142.936692,65.6855414 140.515136,65.6550416 L143.907437,63.3761009 Z M159.78011,110.468749 C156.774009,112.254946 152.723936,111.826881 148.375882,109.26371 C143.880222,106.613313 139.651291,102.028848 136.467946,96.3546974 C133.284716,90.6805469 131.541228,84.6191557 131.558757,79.2872676 C131.575708,74.1305457 133.24055,70.3070332 136.246767,68.5208365 C139.176528,66.7799741 143.098137,67.1433608 147.320495,69.5357561 L147.320495,89.5579879 C147.320495,89.7625858 147.389339,89.9566216 147.509154,90.1117315 L147.509154,90.1117315 L161.855137,108.663089 C161.258368,109.395085 160.565424,110.002114 159.78011,110.468749 Z M167.42083,105.335763 C167.407107,105.343832 167.393731,105.352377 167.380469,105.361278 L164.822031,107.079948 C165.715051,105.027323 166.188545,102.539987 166.197771,99.7082518 C166.21553,94.31394 164.54596,88.2451909 161.485428,82.5287916 L167.902397,78.8081715 C170.637733,84.0975734 172.12487,89.6443843 172.108725,94.5692127 C172.091889,99.7260532 170.427047,103.549566 167.42083,105.335763 Z" id="Shape" fill="#FCA311" fill-rule="nonzero"></path>
                <path d="M11.9369742,292.63529 C12.9968021,291.985132 13.5835621,290.665227 13.5891613,288.918848 C13.5943509,287.279559 13.0833856,285.431169 12.1504284,283.714102 C11.2174029,281.997035 9.96631291,280.602617 8.62761525,279.787833 C7.20151473,278.919795 5.83236263,278.799718 4.77246642,279.449949 C3.7126385,280.100107 3.12581026,281.420012 3.12027929,283.166463 C3.11508975,284.80568 3.62598676,286.654142 4.55901226,288.371209 C5.49196947,290.088276 6.74305943,291.482695 8.08175709,292.297478 C8.90225141,292.796868 9.70389949,293.048704 10.4386298,293.048704 C10.9809372,293.048559 11.4869178,292.911359 11.9369742,292.63529 Z M5.44608297,287.826908 C3.78194623,284.764179 3.70799522,281.359574 5.28466082,280.392355 C5.57759696,280.212638 5.91041065,280.12746 6.26917206,280.12746 C7.84139924,280.12746 9.9084768,281.764499 11.2634942,284.258186 C12.927631,287.320915 13.001582,290.72552 11.4249164,291.692739 C11.1319802,291.872456 10.7990983,291.957634 10.4403368,291.957562 C8.86804139,291.957489 6.80110039,290.320595 5.44608297,287.826908 Z M19.694046,287.194381 C19.4196147,284.986412 18.6467823,282.663881 17.4590594,280.477824 C15.9385911,277.679772 13.9048359,275.410568 11.7325335,274.088268 C9.47255505,272.712714 7.31841605,272.513262 5.66691175,273.526626 C5.52652091,273.612603 3.70184971,274.701206 2.53836746,275.425804 C1.16593776,276.285934 0.31191625,277.877772 0.0682125029,280.033574 C-0.159854327,282.050218 0.188254864,284.471568 1.0483536,286.853594 C1.04951442,286.857294 1.05074352,286.860994 1.05204091,286.864622 L7.87390217,306.643106 C7.9411614,306.838059 8.10702198,306.975404 8.30142505,306.997025 C8.31931533,306.999057 8.33713731,307 8.35489102,307 C8.44502522,307 8.53215494,306.974316 8.60856416,306.927954 L11.7015328,305.051485 C11.7748009,305.00701 11.8365975,304.944033 11.8814597,304.868068 L18.5957745,293.491212 C18.7445642,293.276597 18.8820871,293.042537 19.0047926,292.795272 C19.7295534,291.33512 19.9679994,289.398359 19.694046,287.194381 Z M2.02043725,286.50976 C2.01763763,286.500545 2.01456487,286.491331 2.01121898,286.482189 C1.20492763,284.25659 0.876074378,282.012489 1.08509012,280.163374 C1.3451819,277.862971 2.316651,276.817611 3.08579614,276.345791 C4.40865203,275.534345 6.2004106,275.734522 8.13071635,276.909464 C10.1486298,278.137734 12.0481397,280.264805 13.4793615,282.898811 C15.7045836,286.993986 16.3182473,291.521221 15.0064533,294.164224 L15.0064533,294.164224 C14.9058717,294.366796 8.47595763,305.226123 8.47595763,305.226123 L2.02043725,286.50976 Z M18.0988073,292.287611 C17.9970649,292.492576 11.0818602,304.174233 11.0818602,304.174233 L9.87276454,304.907973 C9.87276454,304.907973 15.7909622,294.916611 15.9124385,294.671886 L15.9124385,294.671886 C16.6371994,293.211733 16.8755087,291.274972 16.6015554,289.071067 C16.3270558,286.863098 15.5541551,284.540639 14.3664322,282.354655 C12.8461005,279.556676 10.8123453,277.287544 8.63990627,275.965172 C7.58554103,275.32343 6.5542556,274.937877 5.58613239,274.811851 C5.84260515,274.66667 6.04725075,274.54993 6.17883302,274.469395 C7.50162063,273.657732 9.29317435,273.857909 11.2234118,275.032778 C13.2411887,276.260975 15.1406986,278.388046 16.572057,281.022125 C18.7972108,285.117445 19.4107379,289.64468 18.0988073,292.287611 Z" id="Combined-Shape" fill="#FCA311" fill-rule="nonzero"></path>
                <path d="M44.2648163,64.9732188 L51.601467,55.2511784 L51.601467,69.2131674 L44.2648163,64.9732188 Z M61.3598652,64.9732188 L54.0220049,69.2131674 L54.0220049,55.2511784 L61.3598652,64.9732188 Z M54.0232144,51.2519753 L52.8117359,49.516129 L51.601467,51.2519753 L40.7090465,65.6855114 L51.601467,71.9801477 L52.8117359,72.6236559 L54.0232144,71.9801477 L64.9144254,65.6855114 L54.0232144,51.2519753 Z" id="Fill-2" fill="#FCA311" transform="translate(52.811736, 61.069892) rotate(-120.000000) translate(-52.811736, -61.069892) "></path>
                <path d="M44.7391179,204.163141 L13.1229236,186.059186 C12.8933949,185.927703 12.6104414,185.927703 12.3809127,186.059186 L10.2732059,187.266083 C10.0436772,187.397567 9.90220049,187.640418 9.90220049,187.903384 L9.90220049,212.041827 C9.90220049,212.304696 10.0436772,212.547645 10.2732059,212.679128 L18.3235296,217.289379 L18.3235296,222.70884 C18.3235296,223.11526 18.6556537,223.444753 19.0655405,223.444753 C19.4754273,223.444753 19.8075514,223.11526 19.8075514,222.70884 L19.8075514,218.13931 L33.0968678,225.749731 L33.0968678,231.439714 C33.0968678,231.846134 33.4289919,232.175627 33.8388787,232.175627 C34.2487656,232.175627 34.5808896,231.846134 34.5808896,231.439714 L34.5808896,226.599662 L41.8892024,230.784948 C42.0039667,230.850689 42.1320873,230.88356 42.2602078,230.88356 C42.3883284,230.88356 42.5164489,230.850689 42.6312133,230.784948 C42.6314112,230.784849 42.6315101,230.784751 42.631708,230.784653 L42.631708,230.784653 L44.7377328,229.576676 C44.9669647,229.445095 45.1082436,229.202342 45.1082436,228.93967 L45.1100244,204.80054 C45.1101233,204.537573 44.9686466,204.294624 44.7391179,204.163141 Z M41.5182959,228.872751 L11.3862223,211.61696 L11.3862223,189.178084 L41.5181969,206.432305 L41.5181969,228.872751 L41.5182959,228.872751 Z M43.6243207,228.514999 L43.0023177,228.87177 L43.0023177,206.007339 C43.0023177,205.744373 42.8608409,205.501522 42.6313122,205.370038 L12.1282332,187.903384 L12.7519181,187.546221 L43.6260026,205.225309 L43.6243207,228.514999 Z M15.2309271,210.267197 L18.9141703,208.1565 L22.7298872,212.523802 C22.8715618,212.685899 23.0765547,212.777741 23.2905506,212.777741 C23.3139982,212.777741 23.3376436,212.776661 23.3611901,212.774404 C23.6000186,212.751836 23.8131242,212.616036 23.933231,212.409882 L27.6036127,206.106442 L31.1408281,210.519665 C31.3826248,210.821291 31.8182346,210.886836 32.1393769,210.669987 L36.3533064,207.823377 C36.6920591,207.594557 36.7796164,207.136721 36.5489994,206.80085 C36.3181845,206.464979 35.8566537,206.378141 35.5179999,206.606863 L31.873737,209.06864 L28.0872059,204.344274 C27.9343517,204.153623 27.6946327,204.050399 27.4515499,204.068257 C27.2065874,204.086312 26.9865564,204.223289 26.8637783,204.434153 L23.1692566,210.779 L19.6344155,206.733244 C19.401523,206.466647 19.0105328,206.401396 18.7024498,206.578015 L14.4886194,208.99289 C14.1337403,209.196198 14.0123473,209.646381 14.2173402,209.998246 C14.4222341,210.350208 14.8761469,210.470604 15.2309271,210.267197 Z M12.3792308,211.47331 L39.7816935,227.164058 C39.8964579,227.2298 40.0245784,227.262671 40.152699,227.262671 C40.2808195,227.262671 40.4089401,227.2298 40.5237045,227.164058 C40.7532332,227.032575 40.8947099,226.789724 40.8947099,226.526758 L40.8947099,207.214237 C40.8947099,206.951271 40.7532332,206.708321 40.5237045,206.576838 L13.1211427,190.887856 C12.891614,190.756471 12.6086605,190.756471 12.3791318,190.887856 C12.1496031,191.019241 12.0081264,191.262288 12.0081264,191.525157 L12.0082253,210.835911 C12.0082253,211.098877 12.1496031,211.341827 12.3792308,211.47331 Z M39.4105892,207.639202 L39.4105892,225.252156 L13.4922471,210.411142 L13.4921482,192.799856 L39.4105892,207.639202 Z" id="Combined-Shape" fill="#330867" fill-rule="nonzero"></path>
            </g>
        </g>
    </g>
</svg>